<mxfile host="app.diagrams.net" modified="2023-07-02T07:49:52.367Z" agent="Mozilla/5.0 (Macintosh; Intel Mac OS X 10_15_7) AppleWebKit/537.36 (KHTML, like Gecko) Chrome/114.0.0.0 Safari/537.36" version="21.5.0" etag="_sJHFvRN_z-UzBQAUazQ" type="github">
  <diagram name="Trang-1" id="H_u_8XgM2NmY9x2If1FL">
    <mxGraphModel>
      <root>
        <mxCell id="0" />
        <mxCell id="1" parent="0" />
      </root>
    </mxGraphModel>
  </diagram>
</mxfile>
